<?xml version="1.0" encoding="utf-8"?>
<svg version="1.1" xmlns="http://www.w3.org/2000/svg" xmlns:xlink="http://www.w3.org/1999/xlink" x="0px"
	 y="0px" viewBox="0 0 160 160" style="enable-background:new 0 0 160 160;" xml:space="preserve">
<g>
	<path d="M17.8,81.7c0.2,1.3,0.5,2.2,1.1,2.8c1,1.1,2.6,1.7,4.9,1.7c1.4,0,2.5-0.2,3.4-0.5c1.7-0.6,2.5-1.7,2.5-3.2
		c0-0.9-0.4-1.6-1.2-2.1c-0.8-0.5-2.1-0.9-3.9-1.3l-3-0.7c-3-0.7-5-1.4-6.1-2.1c-1.9-1.3-2.8-3.3-2.8-6c0-2.5,0.9-4.6,2.7-6.2
		c1.8-1.6,4.5-2.5,8.1-2.5c3,0,5.5,0.8,7.6,2.3c2.1,1.6,3.2,3.8,3.3,6.8h-5.6c-0.1-1.7-0.9-2.9-2.2-3.6c-0.9-0.5-2.1-0.7-3.5-0.7
		c-1.5,0-2.8,0.3-3.7,0.9c-0.9,0.6-1.4,1.4-1.4,2.5c0,1,0.5,1.7,1.4,2.2c0.6,0.3,1.8,0.7,3.7,1.1l4.9,1.1c2.1,0.5,3.7,1.2,4.8,2
		c1.7,1.3,2.5,3.2,2.5,5.7c0,2.5-1,4.6-2.9,6.3c-2,1.7-4.7,2.5-8.3,2.5c-3.7,0-6.5-0.8-8.6-2.5c-2.1-1.7-3.1-3.9-3.1-6.8H17.8z"/>
	<path d="M47,77.8c1-0.1,1.7-0.3,2.1-0.5c0.8-0.3,1.2-0.8,1.2-1.5c0-0.8-0.3-1.4-0.9-1.7c-0.6-0.3-1.5-0.5-2.6-0.5
		c-1.3,0-2.2,0.3-2.7,0.9c-0.4,0.5-0.6,1.1-0.8,1.9h-5.2c0.1-1.8,0.6-3.3,1.5-4.4c1.4-1.8,3.9-2.7,7.3-2.7c2.3,0,4.3,0.4,6,1.3
		s2.6,2.6,2.6,5.1V85c0,0.7,0,1.4,0,2.4c0,0.7,0.1,1.2,0.3,1.4c0.2,0.3,0.4,0.5,0.8,0.6v0.8H51c-0.2-0.4-0.3-0.8-0.3-1.2
		c-0.1-0.4-0.1-0.8-0.2-1.2c-0.7,0.8-1.6,1.5-2.6,2.1c-1.2,0.7-2.5,1-3.9,1c-1.9,0-3.4-0.5-4.6-1.6c-1.2-1.1-1.8-2.6-1.8-4.5
		c0-2.5,1-4.4,2.9-5.5c1.1-0.6,2.7-1.1,4.7-1.3L47,77.8z M50.3,80.3c-0.3,0.2-0.7,0.4-1,0.5c-0.4,0.1-0.8,0.3-1.4,0.4l-1.2,0.2
		c-1.1,0.2-2,0.4-2.5,0.7c-0.8,0.5-1.3,1.3-1.3,2.3c0,0.9,0.3,1.6,0.8,2c0.5,0.4,1.1,0.6,1.9,0.6c1.2,0,2.3-0.3,3.2-1
		s1.5-1.9,1.5-3.7V80.3z"/>
	<path d="M86,69.8c0.9,0.4,1.7,1,2.4,1.8c0.6,0.7,1,1.6,1.2,2.6c0.1,0.7,0.2,1.7,0.2,3l0,13h-5.5V77.2c0-0.8-0.1-1.4-0.4-1.9
		c-0.5-1-1.4-1.4-2.6-1.4c-1.5,0-2.5,0.6-3.1,1.8c-0.3,0.7-0.4,1.4-0.4,2.4v12.2h-5.4V78c0-1.2-0.1-2.1-0.4-2.7
		c-0.5-1-1.3-1.5-2.7-1.5c-1.5,0-2.6,0.5-3.1,1.5c-0.3,0.6-0.4,1.4-0.4,2.5v12.4h-5.4V69.7h5.2v3c0.7-1.1,1.3-1.8,1.9-2.3
		c1-0.8,2.4-1.2,4.1-1.2c1.6,0,2.8,0.3,3.8,1c0.8,0.6,1.4,1.5,1.8,2.5c0.7-1.2,1.6-2.1,2.6-2.7c1.1-0.6,2.3-0.8,3.7-0.8
		C84.2,69.3,85.1,69.4,86,69.8z"/>
	<path d="M112,71.9c1.7,1.8,2.5,4.4,2.5,7.8c0,3.6-0.8,6.4-2.5,8.3c-1.6,1.9-3.7,2.8-6.3,2.8c-1.6,0-3-0.4-4.1-1.2
		c-0.6-0.5-1.2-1.1-1.7-2v10.7h-5.3V69.7h5.1v3c0.6-0.9,1.2-1.6,1.9-2.1c1.2-0.9,2.6-1.4,4.3-1.4C108.3,69.3,110.3,70.1,112,71.9z
		 M107.9,75.8c-0.7-1.2-1.9-1.8-3.6-1.8c-2,0-3.3,0.9-4.1,2.8c-0.4,1-0.6,2.2-0.6,3.7c0,2.4,0.6,4.1,1.9,5c0.8,0.6,1.7,0.8,2.7,0.8
		c1.5,0,2.7-0.6,3.5-1.7s1.2-2.7,1.2-4.6C109,78.4,108.6,77,107.9,75.8z"/>
	<path d="M123.8,90.3h-5.4V62.5h5.4V90.3z"/>
	<path d="M142.4,70.1c1.4,0.6,2.6,1.7,3.6,3c0.8,1.2,1.4,2.6,1.6,4.2c0.1,0.9,0.2,2.3,0.2,4.1h-15c0.1,2.1,0.8,3.5,2.1,4.3
		c0.8,0.5,1.8,0.8,3,0.8c1.2,0,2.2-0.3,3-0.9c0.4-0.3,0.8-0.8,1.1-1.4h5.5c-0.1,1.2-0.8,2.5-2,3.7c-1.8,2-4.4,3-7.7,3
		c-2.7,0-5.1-0.8-7.2-2.5s-3.1-4.4-3.1-8.2c0-3.6,0.9-6.3,2.8-8.2c1.9-1.9,4.3-2.8,7.3-2.8C139.4,69.2,141,69.5,142.4,70.1z
		 M134.4,74.8c-0.8,0.8-1.2,1.8-1.4,3.2h9.3c-0.1-1.4-0.6-2.5-1.4-3.2c-0.9-0.7-1.9-1.1-3.2-1.1C136.2,73.6,135.1,74,134.4,74.8z"/>
</g>
</svg>
